
<svg width="600" height="400" xmlns="http://www.w3.org/2000/svg">
  <rect width="600" height="400" fill="#0f172a" />
  
  <!-- Header -->
  <rect x="40" y="40" width="520" height="50" rx="10" fill="#1e293b" />
  <rect x="50" y="55" width="100" height="20" rx="5" fill="#6366f1" opacity="0.2" />
  <text x="60" y="70" font-family="Arial" font-size="12" fill="#818cf8">DNA LAB</text>
  
  <!-- Grid -->
  <rect x="40" y="110" width="250" height="120" rx="10" fill="#1e293b" stroke="#334155" />
  <text x="55" y="135" font-family="Arial" font-size="10" fill="#6366f1">SUBJECT DNA</text>
  <rect x="55" y="150" width="220" height="60" fill="#0f172a" rx="5"/>
  <rect x="65" y="160" width="150" height="8" fill="#334155" rx="2"/>
  <rect x="65" y="175" width="100" height="8" fill="#334155" rx="2"/>

  <rect x="310" y="110" width="250" height="120" rx="10" fill="#1e293b" stroke="#334155" />
  <text x="325" y="135" font-family="Arial" font-size="10" fill="#a855f7">STYLE DNA</text>
  <rect x="325" y="150" width="220" height="60" fill="#0f172a" rx="5"/>
  <rect x="335" y="160" width="180" height="8" fill="#334155" rx="2"/>

  <!-- Palette -->
  <rect x="40" y="250" width="520" height="60" rx="10" fill="#1e293b" />
  <circle cx="70" cy="280" r="15" fill="#ef4444" />
  <circle cx="110" cy="280" r="15" fill="#3b82f6" />
  <circle cx="150" cy="280" r="15" fill="#10b981" />
  <circle cx="190" cy="280" r="15" fill="#f59e0b" />
  
  <!-- Master Prompt -->
  <rect x="40" y="330" width="520" height="50" rx="10" fill="#312e81" fill-opacity="0.3" stroke="#6366f1" />
  <text x="60" y="360" font-family="Arial" font-size="14" fill="#e2e8f0" font-style="italic">Master Synthesis Prompt...</text>
</svg>
